<?xml version="1.0" standalone="no"?>
<!DOCTYPE svg PUBLIC "-//W3C//DTD SVG 20010904//EN"
 "http://www.w3.org/TR/2001/REC-SVG-20010904/DTD/svg10.dtd">
<svg version="1.0" xmlns="http://www.w3.org/2000/svg"
 width="1081.000000pt" height="1081.000000pt" viewBox="0 0 1081.000000 1081.000000"
 preserveAspectRatio="xMidYMid meet">
<metadata>
Created by potrace 1.14, written by Peter Selinger 2001-2017
</metadata>
<g transform="translate(0.000000,1081.000000) scale(0.100000,-0.100000)"
fill="#000000" stroke="none">
<path d="M5248 8405 c-2 -2 -45 -6 -95 -9 -51 -4 -103 -9 -115 -11 -13 -2 -41
-6 -63 -10 -552 -81 -1065 -310 -1489 -664 -159 -133 -417 -405 -483 -509 -10
-15 -20 -29 -23 -32 -10 -10 -108 -156 -149 -223 -61 -99 -163 -306 -210 -424
-84 -212 -164 -510 -186 -698 -4 -27 -8 -61 -11 -75 -16 -103 -23 -440 -10
-570 16 -166 19 -189 56 -395 44 -247 195 -635 346 -892 58 -99 156 -245 205
-307 202 -254 395 -442 619 -603 84 -60 131 -92 270 -178 127 -79 441 -215
620 -269 91 -27 272 -71 330 -80 19 -3 44 -8 55 -10 12 -2 48 -7 80 -11 33 -4
68 -9 79 -11 114 -21 591 -20 676 1 8 2 38 6 65 10 192 23 506 104 680 176 17
7 35 13 42 15 18 3 305 143 333 162 14 9 27 17 30 17 11 2 109 65 214 137 253
176 485 397 669 636 61 80 197 279 197 288 0 3 9 18 19 33 32 44 156 298 196
401 58 148 116 336 139 450 26 130 35 183 42 230 3 30 8 66 10 80 28 196 22
571 -11 785 -84 539 -293 1016 -632 1440 -91 115 -312 342 -398 410 -27 22
-52 43 -55 46 -3 4 -59 46 -124 94 -202 146 -405 259 -636 353 -116 47 -332
118 -390 128 -14 3 -32 7 -40 10 -8 3 -58 14 -110 24 -87 17 -157 27 -310 46
-51 6 -427 14 -432 9z m340 -219 c63 -4 122 -9 131 -11 10 -2 42 -6 71 -10 29
-4 62 -9 74 -11 12 -2 37 -7 56 -10 215 -37 493 -130 708 -237 360 -179 620
-381 909 -709 62 -71 212 -280 259 -363 134 -235 225 -446 293 -680 21 -73 61
-252 66 -295 1 -14 5 -45 9 -70 35 -235 32 -552 -9 -830 -50 -343 -214 -763
-418 -1074 -153 -232 -382 -485 -587 -649 -362 -289 -837 -506 -1260 -573 -14
-2 -38 -6 -55 -9 -36 -6 -85 -13 -145 -20 -77 -11 -421 -13 -510 -4 -120 12
-181 19 -204 24 -12 2 -34 6 -51 9 -211 32 -488 120 -715 228 -675 321 -1212
927 -1443 1628 -58 177 -86 292 -113 460 -2 14 -6 39 -9 55 -13 80 -20 206
-20 370 0 161 10 348 19 364 2 3 6 29 10 56 8 67 13 91 42 220 89 385 279 777
532 1094 100 126 322 348 442 443 339 269 732 456 1150 547 113 24 117 25 280
47 14 1 81 6 150 10 69 3 126 7 127 8 3 2 100 -1 211 -8z"/>
<path d="M5490 6692 c-32 -2 -106 -13 -190 -27 -60 -11 -206 -63 -282 -101
-272 -136 -451 -339 -515 -584 -17 -65 -23 -263 -10 -323 35 -165 104 -287
221 -394 106 -97 182 -130 445 -194 192 -46 275 -82 326 -141 87 -102 87 -266
0 -426 -97 -177 -272 -359 -540 -562 -145 -109 -259 -181 -357 -224 -62 -28
-88 -56 -88 -99 0 -39 15 -64 49 -82 37 -19 56 -13 206 62 475 237 848 512
1144 844 181 203 282 353 387 574 119 252 169 468 169 735 0 153 -6 204 -35
308 -67 239 -221 431 -435 540 -133 68 -337 107 -495 94z"/>
</g>
</svg>
